<svg id="Layer_1" data-name="Layer 1" xmlns="http://www.w3.org/2000/svg" viewBox="0 0 239.57 239.58"><defs><style>.cls-1{fill:gray;}</style></defs><path class="cls-1" d="M637.22,328.21h14a12.87,12.87,0,0,0,1.8.39,110.61,110.61,0,0,1,41.77,10.88c36.87,18.08,59.4,47.3,67.29,87.66.89,4.56,1.27,9.22,1.89,13.83v14a15.68,15.68,0,0,0-.4,2,108.52,108.52,0,0,1-10.88,41.54c-21.34,42.61-55.9,65.88-103.48,69a109,109,0,0,1-61.19-13.89c-39.27-22-60.62-55.67-63.4-100.63a111.06,111.06,0,0,1,13.86-61.2q27.87-50.68,84.85-61.73C627.94,329.22,632.6,328.83,637.22,328.21ZM572.68,415.1c-.07,1.42-.16,2.42-.16,3.41q0,32.63,0,65.24c0,8.9,5.19,14.15,14.05,14.16q57.63,0,115.27,0c8.88,0,14.09-5.24,14.1-14.11q0-32.62,0-65.24c0-1-.11-2.09-.18-3.38-1,.62-1.79,1-2.5,1.48q-31.82,19.84-63.6,39.74c-3.76,2.36-7.06,2.39-10.82,0-17.32-10.93-34.73-21.72-52.1-32.56Zm142-.8c-.92-.64-1.29-.92-1.68-1.16q-33.59-21-67.16-41.94a2.66,2.66,0,0,0-3.31.12q-33.27,20.82-66.57,41.56c-.56.34-1.08.74-2.07,1.42Z" transform="translate(-524.44 -328.21)"/></svg>