<svg id="Layer_1" data-name="Layer 1" xmlns="http://www.w3.org/2000/svg" viewBox="0 0 239.57 239.58"><defs><style>.cls-1{fill:gray;}</style></defs><path class="cls-1" d="M1068,464.75v14a15.68,15.68,0,0,0-.4,2,108.62,108.62,0,0,1-10.88,41.54c-21.34,42.6-55.9,65.88-103.48,69a109,109,0,0,1-61.19-13.89c-39.27-22-60.62-55.67-63.4-100.63a111,111,0,0,1,13.86-61.2q27.87-50.69,84.85-61.73c4.57-.88,9.23-1.27,13.85-1.89h14a12.83,12.83,0,0,0,1.8.38,110.63,110.63,0,0,1,41.77,10.89c36.87,18.07,59.4,47.3,67.29,87.66C1067,455.49,1067.39,460.14,1068,464.75Zm-24.37-24.49c-1.36.76-2.11,1.16-2.84,1.58-17.07,9.85-34.15,19.66-51.17,29.58a7.07,7.07,0,0,1-8.42-.3q-20.24-13.87-40.6-27.56c-2.35-1.58-5.19-2.77-4.32-6.66a13.34,13.34,0,0,0-1.5,4.41q-2.87,23.19-5.62,46.39a34,34,0,0,0-.48,6.51c.41,5.2,4.68,8.53,10.69,8.54h87c.7,0,1.4,0,2.1-.07a9.5,9.5,0,0,0,8.69-8.36q2.76-22.6,5.51-45.23C1043,446.34,1043.28,443.58,1043.64,440.26Zm-100.06-8.13c.66.54,1,.84,1.34,1.08C958,442.13,971.07,451,984.1,460c1.32.91,2.19.52,3.33-.14q22.77-13.12,45.57-26.21c.63-.36,1.23-.79,2.31-1.5Zm-20.4,2.8H851.47V447h70C922.07,443,922.61,439,923.18,434.93Zm-59.64,40.46h54.63c.49-4.11,1-8,1.42-12H863.54Zm53,24.44V487.76H877v12.07Z" transform="translate(-828.44 -352)"/></svg>